<svg width="18" height="17" viewBox="0 0 18 17" fill="none" xmlns="http://www.w3.org/2000/svg">
<path d="M11.5934 1.89653C9.06503 -0.631852 4.9499 -0.631852 2.42151 1.89653C-0.106324 4.42546 -0.106324 8.54005 2.42151 11.069C4.67311 13.32 8.17985 13.5612 10.7066 11.8034C10.7598 12.055 10.8814 12.2951 11.0771 12.4908L14.7592 16.1729C15.2958 16.7084 16.1629 16.7084 16.6968 16.1729C17.2328 15.6368 17.2328 14.7698 16.6968 14.2354L13.0146 10.5521C12.8201 10.3581 12.5794 10.2359 12.3279 10.1827C14.0867 7.65542 13.8456 4.14922 11.5934 1.89653ZM10.4309 9.90646C8.54324 11.7941 5.47114 11.7941 3.58403 9.90646C1.69747 8.01881 1.69747 4.94726 3.58403 3.0596C5.47114 1.17249 8.54324 1.17249 10.4309 3.0596C12.3185 4.94726 12.3185 8.01881 10.4309 9.90646Z" fill="#EE2F24"/>
</svg>
