<svg width="12" height="11" viewBox="0 0 12 11" fill="none" xmlns="http://www.w3.org/2000/svg">
<path d="M10.4325 1.13751C8.91587 -0.379164 6.45697 -0.379164 4.9403 1.13748L1.69446 4.38332C0.125646 5.95219 0.270892 8.45193 1.69446 9.87556C1.93284 10.1139 2.1966 10.3083 2.47512 10.468L3.06753 9.87556C3.45609 9.48694 3.31932 9.03266 3.31233 8.70485C3.22705 8.6444 3.1441 8.57906 3.06753 8.50248C2.337 7.77201 2.30415 6.51975 3.06753 5.75636C3.1809 5.64299 6.24451 2.57939 6.31331 2.51059C7.07058 1.75332 8.30216 1.75332 9.05943 2.51059C9.8167 3.26785 9.8167 4.49944 9.05943 5.25671L6.91397 7.40216C6.97601 7.74544 7.34835 8.5586 7.15683 9.9C7.16618 9.8908 7.17738 9.88488 7.1867 9.87559L10.4325 6.62975C11.9491 5.11308 11.9491 2.65418 10.4325 1.13751Z" fill="#EE2F24"/>
</svg>
