<svg width="12" height="12" viewBox="0 0 12 12" fill="none" xmlns="http://www.w3.org/2000/svg">
<path d="M10.127 1.44293C9.88868 1.20455 9.62489 1.01017 9.34644 0.850525L8.75403 1.44293C8.36541 1.83149 8.50218 2.28577 8.50917 2.61358C8.59451 2.67403 8.67745 2.73938 8.75403 2.81595C9.48456 3.54648 9.51741 4.79868 8.75403 5.56207C8.6404 5.6757 5.32303 8.99306 5.25665 9.05944C4.49939 9.81671 3.2678 9.81671 2.51053 9.05944C1.75326 8.30217 1.75326 7.07059 2.51053 6.31332L4.90758 3.91627C4.84554 3.57299 4.47317 2.75983 4.66473 1.41844C4.65538 1.42763 4.64411 1.43361 4.63479 1.4429L1.13746 4.94031C-0.379152 6.45698 -0.379152 8.91588 1.13746 10.4325C2.65413 11.9492 5.11299 11.9492 6.62967 10.4325L10.127 6.93518C11.6668 5.39546 11.5826 2.89847 10.127 1.44293Z" fill="#EE2F24"/>
</svg>
